<svg width="47" height="47" viewBox="0 0 47 47" fill="none" xmlns="http://www.w3.org/2000/svg">
<path d="M1.15625 11.4688C1.15625 30.4529 16.5471 45.8438 35.5313 45.8438H40.6875C42.055 45.8438 43.3665 45.3005 44.3335 44.3335C45.3005 43.3665 45.8438 42.055 45.8438 40.6875V37.5433C45.8438 36.3608 45.0394 35.3296 43.8913 35.0431L33.7552 32.5085C32.7469 32.2565 31.6881 32.6346 31.0671 33.4642L28.8442 36.4273C28.1979 37.289 27.0819 37.6694 26.0713 37.2981C22.3195 35.9188 18.9124 33.7405 16.086 30.914C13.2595 28.0876 11.0812 24.6805 9.70188 20.9288C9.33063 19.9181 9.71104 18.8021 10.5727 18.1558L13.5358 15.9329C14.3677 15.3119 14.7435 14.2508 14.4915 13.2448L11.9569 3.10875C11.8174 2.55118 11.4956 2.05619 11.0426 1.70244C10.5896 1.34868 10.0314 1.15644 9.45667 1.15625H6.3125C4.94498 1.15625 3.63347 1.6995 2.66648 2.66648C1.6995 3.63347 1.15625 4.94498 1.15625 6.3125V11.4688Z" stroke="#19BD7E" stroke-width="1.5" stroke-linecap="round" stroke-linejoin="round"/>
</svg>
