<svg width="40" height="49" viewBox="0 0 40 49" fill="none" xmlns="http://www.w3.org/2000/svg">
<path d="M38.5 19.75C38.5 37.605 19.75 47.875 19.75 47.875C19.75 47.875 1 37.605 1 19.75C1 14.7772 2.97544 10.0081 6.49175 6.49175C10.0081 2.97544 14.7772 1 19.75 1C24.7228 1 29.4919 2.97544 33.0083 6.49175C36.5246 10.0081 38.5 14.7772 38.5 19.75V19.75Z" stroke="#19BD7E" stroke-width="1.5" stroke-linecap="round" stroke-linejoin="round"/>
<path d="M27.25 19.75C27.25 21.7391 26.4598 23.6468 25.0533 25.0533C23.6468 26.4598 21.7391 27.25 19.75 27.25C17.7609 27.25 15.8532 26.4598 14.4467 25.0533C13.0402 23.6468 12.25 21.7391 12.25 19.75C12.25 17.7609 13.0402 15.8532 14.4467 14.4467C15.8532 13.0402 17.7609 12.25 19.75 12.25C21.7391 12.25 23.6468 13.0402 25.0533 14.4467C26.4598 15.8532 27.25 17.7609 27.25 19.75Z" stroke="#19BD7E" stroke-width="1.5" stroke-linecap="round" stroke-linejoin="round"/>
</svg>
