<svg width="47" height="37" viewBox="0 0 47 37" fill="none" xmlns="http://www.w3.org/2000/svg">
<path d="M45.8438 6.46875V30.5313C45.8438 31.8988 45.3005 33.2103 44.3335 34.1773C43.3665 35.1443 42.055 35.6875 40.6875 35.6875H6.3125C4.94498 35.6875 3.63347 35.1443 2.66648 34.1773C1.6995 33.2103 1.15625 31.8988 1.15625 30.5313V6.46875M45.8438 6.46875C45.8438 5.10123 45.3005 3.78972 44.3335 2.82273C43.3665 1.85575 42.055 1.3125 40.6875 1.3125H6.3125C4.94498 1.3125 3.63347 1.85575 2.66648 2.82273C1.6995 3.78972 1.15625 5.10123 1.15625 6.46875M45.8438 6.46875V7.02563C45.8438 7.90596 45.6186 8.77166 45.1893 9.54026C44.7601 10.3089 44.1412 10.9548 43.3917 11.4165L26.2042 21.9925C25.3911 22.4933 24.4549 22.7585 23.5 22.7585C22.5451 22.7585 21.6089 22.4933 20.7958 21.9925L3.60833 11.4188C2.85878 10.9571 2.23991 10.3112 1.81068 9.54255C1.38145 8.77395 1.15615 7.90825 1.15625 7.02792V6.46875" stroke="#19BD7E" stroke-width="1.5" stroke-linecap="round" stroke-linejoin="round"/>
</svg>
