<svg xmlns="http://www.w3.org/2000/svg" xmlns:xlink="http://www.w3.org/1999/xlink" width="500" zoomAndPan="magnify" viewBox="0 0 375 374.999991" height="500" preserveAspectRatio="xMidYMid meet" version="1.0"><defs><clipPath id="943b49cf71"><path d="M 16.726562 16.726562 L 358 16.726562 L 358 358 L 16.726562 358 Z M 16.726562 16.726562 " clip-rule="nonzero"/></clipPath><clipPath id="372bc1f516"><path d="M 49.148438 75.261719 L 325.898438 75.261719 L 325.898438 299.511719 L 49.148438 299.511719 Z M 49.148438 75.261719 " clip-rule="nonzero"/></clipPath></defs><g clip-path="url(#943b49cf71)"><path fill="#ffffff" d="M 187.363281 358 C 141.804688 358 98.910156 340.265625 66.71875 308.007812 C 34.460938 275.820312 16.726562 232.921875 16.726562 187.363281 C 16.726562 141.804688 34.460938 98.910156 66.71875 66.71875 C 98.910156 34.460938 141.804688 16.726562 187.363281 16.726562 C 232.921875 16.726562 275.820312 34.460938 308.007812 66.71875 C 340.265625 98.976562 358 141.804688 358 187.363281 C 358 232.921875 340.265625 275.820312 308.007812 308.007812 C 275.820312 340.265625 232.921875 358 187.363281 358 Z M 187.363281 26.957031 C 144.535156 26.957031 104.226562 43.667969 73.945312 73.945312 C 43.667969 104.226562 26.957031 144.535156 26.957031 187.363281 C 26.957031 230.191406 43.667969 270.5 73.945312 300.78125 C 104.226562 331.058594 144.535156 347.769531 187.363281 347.769531 C 230.191406 347.769531 270.5 331.058594 300.78125 300.78125 C 331.058594 270.5 347.769531 230.191406 347.769531 187.363281 C 347.769531 144.535156 331.058594 104.226562 300.78125 73.945312 C 270.5 43.667969 230.191406 26.957031 187.363281 26.957031 Z M 187.363281 26.957031 " fill-opacity="1" fill-rule="nonzero"/></g><g clip-path="url(#372bc1f516)"><path fill="#ffffff" d="M 325.84375 227.929688 C 325.855469 228.207031 325.835938 228.484375 325.789062 228.761719 C 325.746094 229.035156 325.671875 229.304688 325.570312 229.566406 C 325.472656 229.828125 325.347656 230.074219 325.195312 230.308594 C 325.046875 230.546875 324.875 230.765625 324.679688 230.964844 C 324.488281 231.167969 324.273438 231.347656 324.042969 231.503906 C 323.8125 231.664062 323.570312 231.796875 323.3125 231.90625 C 323.054688 232.015625 322.789062 232.097656 322.515625 232.152344 C 322.242188 232.207031 321.964844 232.234375 321.6875 232.234375 C 321.40625 232.234375 321.128906 232.207031 320.855469 232.152344 C 320.582031 232.097656 320.316406 232.015625 320.058594 231.90625 C 319.800781 231.796875 319.558594 231.664062 319.328125 231.503906 C 319.097656 231.347656 318.886719 231.167969 318.691406 230.964844 C 318.496094 230.765625 318.324219 230.546875 318.175781 230.308594 C 318.027344 230.074219 317.902344 229.828125 317.800781 229.566406 C 317.699219 229.304688 317.628906 229.035156 317.582031 228.761719 C 317.535156 228.484375 317.519531 228.207031 317.527344 227.929688 C 317.527344 209.148438 313.75 192.144531 306.308594 177.378906 C 303.289062 171.433594 299.703125 165.851562 295.546875 160.632812 C 291.390625 155.414062 286.753906 150.671875 281.628906 146.398438 C 272.273438 138.574219 261.910156 132.453125 250.539062 128.03125 L 250.539062 148.519531 C 250.535156 149.046875 250.441406 149.550781 250.246094 150.039062 C 250.054688 150.527344 249.777344 150.960938 249.421875 151.34375 C 249.0625 151.730469 248.644531 152.035156 248.171875 152.257812 C 247.699219 152.484375 247.199219 152.617188 246.675781 152.652344 L 235.464844 153.496094 C 233.988281 153.605469 232.527344 153.828125 231.085938 154.167969 C 229.644531 154.503906 228.238281 154.957031 226.867188 155.515625 C 225.496094 156.078125 224.179688 156.746094 222.914062 157.515625 C 221.648438 158.289062 220.453125 159.152344 219.328125 160.113281 C 218.199219 161.074219 217.15625 162.117188 216.195312 163.242188 C 215.234375 164.367188 214.367188 165.5625 213.597656 166.828125 C 212.824219 168.089844 212.15625 169.40625 211.59375 170.773438 C 211.035156 172.144531 210.582031 173.546875 210.246094 174.988281 L 208.902344 180.625 C 208.699219 181.496094 208.429688 182.347656 208.101562 183.179688 C 207.769531 184.011719 207.375 184.8125 206.921875 185.585938 C 206.46875 186.359375 205.960938 187.09375 205.398438 187.789062 C 204.835938 188.484375 204.226562 189.136719 203.5625 189.738281 C 202.902344 190.34375 202.199219 190.894531 201.457031 191.394531 C 200.714844 191.894531 199.9375 192.335938 199.125 192.71875 C 198.316406 193.101562 197.484375 193.421875 196.625 193.679688 C 195.765625 193.933594 194.894531 194.128906 194.007812 194.253906 L 187.578125 195.195312 C 186.726562 195.3125 186.046875 195.71875 185.542969 196.414062 C 185.039062 197.101562 184.855469 197.867188 184.992188 198.707031 L 187.992188 217.695312 C 188.128906 218.582031 188.34375 219.449219 188.632812 220.296875 C 188.925781 221.144531 189.289062 221.960938 189.726562 222.742188 C 190.164062 223.527344 190.664062 224.265625 191.234375 224.957031 C 191.804688 225.652344 192.429688 226.289062 193.109375 226.871094 C 193.792969 227.457031 194.519531 227.972656 195.296875 228.425781 C 196.070312 228.878906 196.878906 229.257812 197.722656 229.566406 C 198.5625 229.878906 199.425781 230.109375 200.3125 230.265625 C 201.195312 230.417969 202.085938 230.496094 202.984375 230.492188 L 210.0625 230.492188 C 211.011719 230.492188 211.957031 230.539062 212.902344 230.632812 C 213.847656 230.726562 214.785156 230.867188 215.714844 231.054688 C 216.644531 231.238281 217.566406 231.46875 218.472656 231.746094 C 219.382812 232.019531 220.273438 232.339844 221.152344 232.703125 C 222.027344 233.066406 222.882812 233.472656 223.722656 233.917969 C 224.558594 234.367188 225.371094 234.851562 226.160156 235.378906 C 226.949219 235.90625 227.710938 236.46875 228.445312 237.070312 C 229.179688 237.671875 229.878906 238.308594 230.550781 238.976562 C 231.222656 239.648438 231.859375 240.351562 232.460938 241.082031 C 233.066406 241.816406 233.628906 242.574219 234.15625 243.363281 C 234.683594 244.152344 235.171875 244.964844 235.621094 245.796875 C 236.070312 246.632812 236.472656 247.488281 236.839844 248.367188 C 237.203125 249.242188 237.523438 250.132812 237.796875 251.039062 C 238.074219 251.945312 238.304688 252.863281 238.492188 253.792969 C 238.679688 254.722656 238.820312 255.660156 238.914062 256.601562 C 239.007812 257.546875 239.054688 258.492188 239.054688 259.441406 L 239.054688 271.011719 C 239.066406 271.292969 239.046875 271.570312 239.003906 271.84375 C 238.957031 272.121094 238.882812 272.386719 238.785156 272.648438 C 238.683594 272.910156 238.558594 273.15625 238.410156 273.394531 C 238.257812 273.628906 238.085938 273.847656 237.894531 274.046875 C 237.699219 274.25 237.488281 274.429688 237.257812 274.585938 C 237.027344 274.746094 236.78125 274.878906 236.527344 274.988281 C 236.269531 275.097656 236.003906 275.179688 235.730469 275.234375 C 235.453125 275.289062 235.179688 275.320312 234.898438 275.320312 C 234.617188 275.320312 234.34375 275.289062 234.066406 275.234375 C 233.792969 275.179688 233.527344 275.097656 233.273438 274.988281 C 233.015625 274.878906 232.769531 274.746094 232.539062 274.585938 C 232.308594 274.429688 232.097656 274.25 231.902344 274.046875 C 231.710938 273.847656 231.539062 273.628906 231.386719 273.394531 C 231.238281 273.15625 231.113281 272.910156 231.011719 272.648438 C 230.914062 272.386719 230.839844 272.121094 230.792969 271.84375 C 230.75 271.570312 230.730469 271.292969 230.742188 271.011719 L 230.742188 259.441406 C 230.742188 258.765625 230.707031 258.089844 230.640625 257.417969 C 230.574219 256.742188 230.472656 256.078125 230.339844 255.414062 C 230.207031 254.75 230.042969 254.09375 229.847656 253.449219 C 229.648438 252.800781 229.421875 252.167969 229.160156 251.542969 C 228.902344 250.917969 228.613281 250.308594 228.292969 249.710938 C 227.972656 249.113281 227.625 248.535156 227.25 247.972656 C 226.875 247.410156 226.472656 246.867188 226.042969 246.347656 C 225.613281 245.824219 225.15625 245.324219 224.679688 244.84375 C 224.199219 244.367188 223.699219 243.914062 223.175781 243.484375 C 222.652344 243.054688 222.109375 242.652344 221.546875 242.277344 C 220.984375 241.902344 220.40625 241.554688 219.808594 241.234375 C 219.210938 240.917969 218.601562 240.628906 217.976562 240.367188 C 217.351562 240.109375 216.714844 239.882812 216.066406 239.683594 C 215.417969 239.488281 214.761719 239.324219 214.097656 239.191406 C 213.4375 239.058594 212.765625 238.960938 212.09375 238.894531 C 211.417969 238.824219 210.746094 238.792969 210.066406 238.792969 L 202.988281 238.792969 C 201.601562 238.796875 200.222656 238.679688 198.851562 238.4375 C 197.484375 238.199219 196.148438 237.839844 194.84375 237.363281 C 193.539062 236.882812 192.289062 236.296875 191.089844 235.59375 C 189.890625 234.894531 188.761719 234.09375 187.707031 233.191406 C 186.648438 232.289062 185.679688 231.300781 184.800781 230.226562 C 183.921875 229.15625 183.144531 228.011719 182.464844 226.800781 C 181.789062 225.585938 181.226562 224.324219 180.777344 223.011719 C 180.324219 221.699219 179.996094 220.359375 179.78125 218.984375 L 176.785156 199.980469 C 176.667969 199.238281 176.625 198.488281 176.65625 197.738281 C 176.6875 196.984375 176.789062 196.246094 176.96875 195.515625 C 177.144531 194.78125 177.394531 194.078125 177.710938 193.394531 C 178.03125 192.714844 178.414062 192.070312 178.859375 191.464844 C 179.304688 190.855469 179.804688 190.300781 180.363281 189.792969 C 180.921875 189.289062 181.519531 188.839844 182.167969 188.453125 C 182.8125 188.066406 183.492188 187.746094 184.199219 187.496094 C 184.910156 187.242188 185.636719 187.0625 186.382812 186.953125 L 192.816406 186.015625 C 193.773438 185.878906 194.691406 185.601562 195.566406 185.1875 C 196.445312 184.773438 197.238281 184.238281 197.953125 183.585938 C 198.667969 182.933594 199.269531 182.1875 199.761719 181.351562 C 200.25 180.515625 200.605469 179.628906 200.824219 178.6875 L 202.167969 173.046875 C 202.605469 171.183594 203.191406 169.363281 203.917969 167.589844 C 204.648438 165.8125 205.511719 164.109375 206.511719 162.472656 C 207.511719 160.835938 208.632812 159.289062 209.878906 157.828125 C 211.125 156.371094 212.476562 155.019531 213.9375 153.773438 C 215.398438 152.53125 216.949219 151.410156 218.585938 150.410156 C 220.226562 149.410156 221.933594 148.546875 223.710938 147.820312 C 225.484375 147.09375 227.308594 146.507812 229.175781 146.070312 C 231.046875 145.632812 232.9375 145.34375 234.851562 145.203125 L 242.222656 144.652344 L 242.222656 122.234375 C 242.222656 121.917969 242.257812 121.601562 242.332031 121.292969 C 242.402344 120.980469 242.507812 120.683594 242.648438 120.398438 C 242.792969 120.113281 242.960938 119.847656 243.164062 119.597656 C 243.367188 119.351562 243.59375 119.132812 243.847656 118.9375 C 244.101562 118.746094 244.371094 118.582031 244.660156 118.449219 C 244.953125 118.316406 245.253906 118.222656 245.566406 118.160156 C 245.878906 118.09375 246.195312 118.070312 246.511719 118.078125 C 246.832031 118.089844 247.144531 118.136719 247.453125 118.21875 C 248.257812 118.4375 267.386719 123.671875 286.699219 139.808594 C 292.289062 144.433594 297.351562 149.578125 301.886719 155.238281 C 306.421875 160.902344 310.335938 166.960938 313.628906 173.421875 C 321.734375 189.421875 325.84375 207.753906 325.84375 227.929688 Z M 141.609375 121.800781 C 141.019531 120.484375 140.257812 119.28125 139.316406 118.191406 C 138.375 117.097656 137.300781 116.164062 136.085938 115.386719 C 134.871094 114.609375 133.574219 114.023438 132.1875 113.625 C 130.804688 113.226562 129.390625 113.035156 127.949219 113.050781 C 126.507812 113.066406 125.097656 113.285156 123.71875 113.710938 C 122.34375 114.136719 121.058594 114.75 119.859375 115.550781 C 118.660156 116.355469 117.605469 117.308594 116.6875 118.421875 C 115.769531 119.53125 115.03125 120.75 114.46875 122.074219 C 114.363281 122.324219 114.28125 122.585938 114.226562 122.851562 C 114.167969 123.117188 114.140625 123.386719 114.136719 123.660156 C 114.136719 123.933594 114.160156 124.203125 114.210938 124.472656 C 114.261719 124.738281 114.339844 125 114.441406 125.25 C 114.542969 125.503906 114.671875 125.746094 114.820312 125.972656 C 114.972656 126.199219 115.140625 126.410156 115.332031 126.605469 C 115.523438 126.800781 115.734375 126.972656 115.960938 127.125 C 116.183594 127.277344 116.425781 127.40625 116.675781 127.515625 C 117.191406 127.734375 117.730469 127.84375 118.292969 127.84375 C 118.703125 127.847656 119.105469 127.789062 119.5 127.675781 C 119.894531 127.558594 120.265625 127.386719 120.609375 127.160156 C 120.949219 126.933594 121.253906 126.664062 121.519531 126.347656 C 121.78125 126.035156 121.992188 125.6875 122.15625 125.308594 C 122.398438 124.726562 122.722656 124.195312 123.125 123.707031 C 123.527344 123.222656 123.988281 122.800781 124.515625 122.449219 C 125.039062 122.097656 125.601562 121.832031 126.207031 121.644531 C 126.808594 121.457031 127.425781 121.359375 128.058594 121.351562 C 128.6875 121.347656 129.308594 121.429688 129.914062 121.605469 C 130.523438 121.777344 131.089844 122.035156 131.625 122.375 C 132.15625 122.714844 132.628906 123.125 133.039062 123.601562 C 133.453125 124.082031 133.785156 124.605469 134.042969 125.183594 C 134.15625 125.433594 134.289062 125.667969 134.449219 125.890625 C 134.605469 126.113281 134.78125 126.316406 134.980469 126.503906 C 135.179688 126.691406 135.394531 126.859375 135.625 127.003906 C 135.855469 127.148438 136.097656 127.269531 136.355469 127.367188 C 136.609375 127.464844 136.871094 127.539062 137.140625 127.582031 C 137.410156 127.628906 137.679688 127.648438 137.953125 127.640625 C 138.226562 127.632812 138.496094 127.601562 138.761719 127.539062 C 139.027344 127.480469 139.285156 127.394531 139.535156 127.28125 C 139.78125 127.171875 140.019531 127.035156 140.242188 126.878906 C 140.464844 126.722656 140.667969 126.542969 140.859375 126.347656 C 141.046875 126.148438 141.210938 125.933594 141.355469 125.703125 C 141.503906 125.472656 141.625 125.230469 141.722656 124.976562 C 141.820312 124.722656 141.890625 124.460938 141.9375 124.191406 C 141.984375 123.921875 142.003906 123.652344 141.996094 123.378906 C 141.988281 123.105469 141.953125 122.835938 141.894531 122.570312 C 141.832031 122.304688 141.746094 122.046875 141.636719 121.800781 Z M 239.117188 180.863281 C 238.585938 179.683594 237.898438 178.601562 237.050781 177.621094 C 236.207031 176.640625 235.238281 175.800781 234.148438 175.101562 C 233.054688 174.40625 231.886719 173.878906 230.640625 173.519531 C 229.394531 173.164062 228.125 172.992188 226.828125 173.003906 C 225.53125 173.019531 224.265625 173.214844 223.027344 173.597656 C 221.789062 173.980469 220.632812 174.535156 219.558594 175.253906 C 218.480469 175.976562 217.527344 176.832031 216.703125 177.832031 C 215.878906 178.828125 215.214844 179.925781 214.707031 181.117188 C 214.589844 181.371094 214.5 181.632812 214.433594 181.902344 C 214.367188 182.175781 214.332031 182.449219 214.320312 182.730469 C 214.3125 183.007812 214.328125 183.285156 214.375 183.558594 C 214.421875 183.835938 214.496094 184.101562 214.597656 184.363281 C 214.695312 184.625 214.820312 184.871094 214.972656 185.105469 C 215.121094 185.34375 215.292969 185.558594 215.488281 185.761719 C 215.683594 185.960938 215.894531 186.140625 216.125 186.296875 C 216.355469 186.457031 216.601562 186.589844 216.859375 186.699219 C 217.117188 186.808594 217.382812 186.890625 217.65625 186.945312 C 217.929688 187 218.207031 187.027344 218.484375 187.027344 C 218.765625 187.027344 219.042969 186.996094 219.316406 186.941406 C 219.589844 186.886719 219.855469 186.804688 220.109375 186.691406 C 220.367188 186.582031 220.613281 186.449219 220.839844 186.292969 C 221.070312 186.132812 221.285156 185.953125 221.476562 185.75 C 221.671875 185.550781 221.84375 185.332031 221.992188 185.097656 C 222.140625 184.859375 222.265625 184.613281 222.367188 184.351562 C 222.554688 183.902344 222.804688 183.492188 223.117188 183.117188 C 223.425781 182.742188 223.78125 182.421875 224.1875 182.152344 C 224.589844 181.878906 225.027344 181.671875 225.492188 181.53125 C 225.957031 181.386719 226.429688 181.3125 226.917969 181.304688 C 227.402344 181.300781 227.878906 181.367188 228.347656 181.5 C 228.816406 181.632812 229.253906 181.832031 229.664062 182.09375 C 230.074219 182.355469 230.4375 182.671875 230.753906 183.039062 C 231.074219 183.410156 231.332031 183.8125 231.53125 184.257812 C 231.640625 184.507812 231.777344 184.742188 231.933594 184.964844 C 232.09375 185.1875 232.269531 185.390625 232.46875 185.578125 C 232.667969 185.765625 232.882812 185.929688 233.113281 186.078125 C 233.34375 186.222656 233.585938 186.34375 233.84375 186.4375 C 234.097656 186.535156 234.359375 186.609375 234.628906 186.652344 C 234.898438 186.699219 235.167969 186.71875 235.441406 186.710938 C 235.714844 186.703125 235.984375 186.667969 236.25 186.605469 C 236.515625 186.546875 236.773438 186.460938 237.023438 186.347656 C 237.273438 186.238281 237.507812 186.101562 237.730469 185.945312 C 237.953125 185.785156 238.15625 185.609375 238.34375 185.410156 C 238.53125 185.210938 238.699219 185 238.84375 184.765625 C 238.988281 184.535156 239.109375 184.292969 239.207031 184.039062 C 239.304688 183.785156 239.375 183.523438 239.421875 183.253906 C 239.46875 182.984375 239.484375 182.714844 239.476562 182.441406 C 239.46875 182.167969 239.4375 181.898438 239.375 181.632812 C 239.3125 181.367188 239.226562 181.113281 239.117188 180.863281 Z M 211.761719 104.417969 C 211.535156 104.570312 211.296875 104.699219 211.046875 104.808594 C 210.792969 104.914062 210.535156 104.992188 210.269531 105.050781 C 210 105.105469 209.730469 105.132812 209.457031 105.136719 C 209.1875 105.136719 208.914062 105.113281 208.648438 105.0625 C 208.378906 105.011719 208.117188 104.933594 207.867188 104.832031 C 207.613281 104.726562 207.371094 104.601562 207.144531 104.453125 C 206.917969 104.304688 206.707031 104.132812 206.511719 103.941406 C 206.316406 103.75 206.144531 103.542969 205.992188 103.316406 C 204.960938 101.796875 203.839844 100.347656 202.628906 98.96875 C 201.414062 97.589844 200.117188 96.292969 198.742188 95.082031 C 197.363281 93.867188 195.910156 92.746094 194.390625 91.71875 C 192.867188 90.691406 191.289062 89.761719 189.648438 88.933594 C 188.007812 88.105469 186.324219 87.386719 184.589844 86.773438 C 182.859375 86.160156 181.097656 85.660156 179.300781 85.269531 C 177.503906 84.882812 175.691406 84.609375 173.859375 84.449219 C 172.03125 84.292969 170.199219 84.25 168.363281 84.328125 L 127.136719 85.90625 C 126.394531 85.9375 125.664062 86.023438 124.9375 86.164062 C 124.207031 86.308594 123.496094 86.5 122.800781 86.75 C 122.101562 87 121.425781 87.296875 120.773438 87.648438 C 120.121094 88 119.5 88.394531 118.90625 88.839844 C 118.3125 89.28125 117.757812 89.769531 117.238281 90.296875 C 116.71875 90.824219 116.242188 91.386719 115.808594 91.988281 C 115.375 92.585938 114.988281 93.214844 114.648438 93.871094 C 114.308594 94.53125 114.019531 95.207031 113.785156 95.910156 L 108.929688 110.457031 C 108.3125 112.328125 107.46875 114.089844 106.394531 115.742188 C 105.324219 117.394531 104.0625 118.886719 102.605469 120.214844 C 101.152344 121.546875 99.550781 122.667969 97.808594 123.585938 C 96.0625 124.503906 94.230469 125.1875 92.3125 125.632812 L 84.800781 127.410156 L 84.800781 127.546875 C 84.804688 129.335938 84.636719 131.109375 84.292969 132.867188 C 83.953125 134.625 83.441406 136.332031 82.765625 137.992188 C 82.089844 139.648438 81.257812 141.226562 80.269531 142.722656 C 79.285156 144.214844 78.164062 145.601562 76.90625 146.878906 C 74.980469 148.851562 72.808594 150.496094 70.386719 151.816406 C 67.96875 153.136719 65.40625 154.070312 62.703125 154.621094 L 63.671875 159.03125 C 63.984375 160.429688 64.410156 161.796875 64.953125 163.128906 C 65.496094 164.457031 66.148438 165.730469 66.90625 166.953125 C 67.667969 168.171875 68.523438 169.320312 69.476562 170.394531 C 70.425781 171.472656 71.464844 172.460938 72.582031 173.363281 C 73.703125 174.261719 74.890625 175.0625 76.144531 175.765625 C 77.398438 176.46875 78.707031 177.058594 80.058594 177.539062 C 81.414062 178.019531 82.800781 178.386719 84.21875 178.632812 C 85.632812 178.882812 87.058594 179.007812 88.5 179.015625 L 128.941406 179.015625 C 130.519531 176.058594 132.460938 173.359375 134.761719 170.917969 L 134.832031 170.84375 C 149.933594 154.421875 157.585938 136.679688 157.585938 118.046875 C 157.605469 117.507812 157.726562 116.996094 157.945312 116.503906 C 158.164062 116.011719 158.46875 115.578125 158.855469 115.207031 C 159.242188 114.832031 159.6875 114.546875 160.1875 114.34375 C 160.6875 114.144531 161.207031 114.042969 161.742188 114.042969 C 162.28125 114.042969 162.800781 114.144531 163.300781 114.34375 C 163.800781 114.546875 164.242188 114.832031 164.632812 115.207031 C 165.019531 115.578125 165.324219 116.011719 165.542969 116.503906 C 165.761719 116.996094 165.882812 117.507812 165.902344 118.046875 C 165.902344 138.84375 157.476562 158.535156 140.859375 176.570312 C 140.820312 176.613281 140.78125 176.652344 140.738281 176.691406 C 138.5 179.089844 136.710938 181.785156 135.378906 184.78125 C 135.132812 185.339844 134.902344 185.902344 134.6875 186.476562 C 134.476562 187.046875 134.28125 187.625 134.105469 188.210938 C 133.929688 188.796875 133.769531 189.382812 133.628906 189.976562 C 133.488281 190.574219 133.367188 191.171875 133.265625 191.773438 C 133.164062 192.375 133.078125 192.976562 133.015625 193.585938 C 132.949219 194.191406 132.902344 194.800781 132.875 195.410156 C 132.847656 196.019531 132.839844 196.628906 132.851562 197.238281 C 132.859375 197.847656 132.890625 198.457031 132.9375 199.066406 C 132.988281 199.675781 133.054688 200.28125 133.140625 200.886719 C 133.226562 201.488281 133.332031 202.089844 133.457031 202.6875 C 133.578125 203.285156 133.722656 203.878906 133.882812 204.46875 C 134.042969 205.058594 134.222656 205.640625 134.417969 206.21875 C 134.613281 206.796875 134.828125 207.367188 135.0625 207.933594 C 135.292969 208.496094 135.542969 209.054688 135.808594 209.601562 C 136.078125 210.152344 136.359375 210.691406 136.660156 211.222656 C 136.960938 211.753906 137.277344 212.277344 137.613281 212.789062 C 137.945312 213.300781 138.292969 213.800781 138.65625 214.289062 C 139.023438 214.78125 139.402344 215.257812 139.796875 215.726562 C 140.1875 216.191406 140.597656 216.644531 141.019531 217.085938 C 141.441406 217.527344 141.875 217.957031 142.324219 218.371094 C 142.773438 218.785156 143.234375 219.183594 143.710938 219.570312 C 144.183594 219.953125 144.667969 220.324219 145.164062 220.679688 C 145.660156 221.035156 146.167969 221.375 146.6875 221.699219 C 147.203125 222.023438 147.730469 222.332031 148.269531 222.621094 C 148.804688 222.914062 149.351562 223.1875 149.90625 223.445312 C 150.460938 223.703125 151.019531 223.941406 151.589844 224.164062 C 152.160156 224.386719 152.734375 224.59375 153.316406 224.78125 C 153.898438 224.964844 154.484375 225.136719 155.078125 225.285156 C 155.667969 225.4375 156.265625 225.566406 156.867188 225.679688 C 157.464844 225.792969 158.070312 225.890625 158.675781 225.964844 C 159.28125 226.039062 159.890625 226.097656 160.5 226.136719 C 161.109375 226.175781 161.71875 226.195312 162.332031 226.195312 C 162.605469 226.195312 162.875 226.21875 163.144531 226.273438 C 163.410156 226.328125 163.671875 226.40625 163.921875 226.511719 C 164.175781 226.613281 164.414062 226.742188 164.644531 226.894531 C 164.871094 227.046875 165.078125 227.21875 165.273438 227.410156 C 165.464844 227.605469 165.640625 227.8125 165.789062 228.039062 C 165.941406 228.265625 166.070312 228.507812 166.175781 228.757812 C 166.28125 229.011719 166.359375 229.269531 166.410156 229.539062 C 166.464844 229.804688 166.492188 230.078125 166.492188 230.347656 C 166.492188 230.621094 166.464844 230.890625 166.410156 231.160156 C 166.359375 231.425781 166.28125 231.6875 166.175781 231.9375 C 166.070312 232.191406 165.941406 232.429688 165.789062 232.65625 C 165.640625 232.882812 165.464844 233.09375 165.273438 233.289062 C 165.078125 233.480469 164.871094 233.652344 164.644531 233.804688 C 164.414062 233.957031 164.175781 234.082031 163.921875 234.1875 C 163.671875 234.292969 163.410156 234.371094 163.144531 234.425781 C 162.875 234.476562 162.605469 234.503906 162.332031 234.503906 C 157.828125 234.507812 153.46875 233.730469 149.246094 232.171875 L 149.246094 258.394531 C 149.246094 267.109375 153.105469 281.164062 164.0625 292.085938 C 164.265625 292.277344 164.445312 292.484375 164.605469 292.710938 C 164.761719 292.941406 164.898438 293.179688 165.007812 293.433594 C 165.121094 293.6875 165.203125 293.949219 165.261719 294.222656 C 165.320312 294.492188 165.351562 294.765625 165.355469 295.042969 C 165.359375 295.320312 165.335938 295.59375 165.28125 295.867188 C 165.230469 296.140625 165.152344 296.40625 165.046875 296.660156 C 164.945312 296.917969 164.816406 297.160156 164.660156 297.390625 C 164.507812 297.625 164.332031 297.835938 164.136719 298.03125 C 163.941406 298.226562 163.726562 298.402344 163.496094 298.554688 C 163.265625 298.710938 163.019531 298.839844 162.761719 298.941406 C 162.507812 299.046875 162.242188 299.125 161.96875 299.175781 C 161.695312 299.226562 161.421875 299.253906 161.144531 299.25 C 160.867188 299.246094 160.59375 299.214844 160.320312 299.15625 C 160.050781 299.097656 159.789062 299.015625 159.53125 298.902344 C 159.277344 298.792969 159.039062 298.65625 158.808594 298.5 C 158.582031 298.339844 158.375 298.160156 158.183594 297.960938 C 141.757812 281.554688 140.929688 262.140625 140.929688 258.394531 L 140.929688 227.878906 C 139.339844 226.789062 137.84375 225.585938 136.441406 224.269531 C 135.035156 222.953125 133.742188 221.535156 132.554688 220.019531 C 131.367188 218.503906 130.300781 216.90625 129.359375 215.226562 C 128.417969 213.546875 127.609375 211.808594 126.933594 210.003906 C 126.257812 208.203125 125.722656 206.359375 125.328125 204.476562 C 124.933594 202.589844 124.6875 200.6875 124.585938 198.765625 C 124.484375 196.84375 124.527344 194.925781 124.71875 193.011719 C 124.910156 191.097656 125.25 189.207031 125.730469 187.34375 L 88.515625 187.34375 C 87.5625 187.339844 86.613281 187.292969 85.664062 187.210938 C 84.714844 187.125 83.769531 187 82.832031 186.835938 C 81.890625 186.671875 80.960938 186.46875 80.039062 186.226562 C 79.121094 185.984375 78.210938 185.707031 77.3125 185.386719 C 76.414062 185.066406 75.53125 184.710938 74.664062 184.320312 C 73.796875 183.925781 72.945312 183.496094 72.113281 183.035156 C 71.28125 182.570312 70.472656 182.070312 69.683594 181.539062 C 68.894531 181.003906 68.128906 180.441406 67.386719 179.84375 C 66.644531 179.246094 65.925781 178.621094 65.238281 177.960938 C 64.550781 177.304688 63.890625 176.621094 63.257812 175.90625 C 62.625 175.195312 62.027344 174.457031 61.457031 173.695312 C 60.886719 172.929688 60.351562 172.144531 59.847656 171.335938 C 59.347656 170.527344 58.878906 169.699219 58.445312 168.851562 C 58.011719 168.003906 57.613281 167.140625 57.253906 166.257812 C 56.894531 165.378906 56.570312 164.484375 56.289062 163.574219 C 56.003906 162.667969 55.757812 161.75 55.550781 160.820312 L 53.625 152.003906 C 53.625 151.96875 53.625 151.933594 53.625 151.898438 L 50.1875 136.242188 C 50.0625 135.667969 49.996094 135.082031 49.984375 134.496094 C 49.976562 133.90625 50.023438 133.320312 50.125 132.742188 C 50.226562 132.160156 50.386719 131.597656 50.597656 131.046875 C 50.808594 130.496094 51.074219 129.972656 51.386719 129.472656 C 51.703125 128.976562 52.0625 128.511719 52.464844 128.082031 C 52.871094 127.652344 53.3125 127.265625 53.789062 126.921875 C 54.269531 126.578125 54.777344 126.285156 55.3125 126.039062 C 55.851562 125.792969 56.40625 125.601562 56.976562 125.464844 L 79.34375 120.167969 L 79.527344 120.125 L 90.394531 117.550781 C 91.625 117.265625 92.800781 116.828125 93.917969 116.238281 C 95.035156 115.648438 96.058594 114.929688 96.992188 114.078125 C 97.925781 113.226562 98.734375 112.269531 99.417969 111.210938 C 100.105469 110.152344 100.644531 109.023438 101.039062 107.824219 L 105.898438 93.277344 C 106.269531 92.175781 106.722656 91.113281 107.25 90.082031 C 107.78125 89.050781 108.386719 88.066406 109.070312 87.125 C 109.75 86.183594 110.496094 85.300781 111.308594 84.476562 C 112.121094 83.648438 112.992188 82.886719 113.921875 82.191406 C 114.851562 81.496094 115.828125 80.875 116.847656 80.324219 C 117.871094 79.777344 118.929688 79.308594 120.023438 78.917969 C 121.117188 78.53125 122.234375 78.226562 123.371094 78.003906 C 124.511719 77.785156 125.664062 77.652344 126.820312 77.601562 L 168.046875 76.027344 C 170.234375 75.9375 172.417969 75.984375 174.597656 76.171875 C 176.777344 76.359375 178.9375 76.6875 181.078125 77.148438 C 183.214844 77.613281 185.316406 78.207031 187.378906 78.9375 C 189.441406 79.667969 191.449219 80.527344 193.402344 81.511719 C 195.355469 82.5 197.238281 83.605469 199.050781 84.828125 C 200.863281 86.054688 202.589844 87.390625 204.234375 88.835938 C 205.875 90.28125 207.417969 91.824219 208.863281 93.46875 C 210.304688 95.109375 211.640625 96.835938 212.863281 98.648438 C 213.019531 98.875 213.148438 99.113281 213.253906 99.363281 C 213.359375 99.613281 213.441406 99.875 213.496094 100.140625 C 213.550781 100.410156 213.582031 100.679688 213.582031 100.949219 C 213.585938 101.222656 213.558594 101.492188 213.507812 101.761719 C 213.457031 102.03125 213.382812 102.289062 213.277344 102.542969 C 213.175781 102.796875 213.050781 103.035156 212.898438 103.261719 C 212.75 103.492188 212.578125 103.703125 212.386719 103.898438 C 212.195312 104.089844 211.988281 104.265625 211.761719 104.417969 Z M 76.394531 129.398438 L 58.890625 133.542969 C 58.6875 133.59375 58.527344 133.710938 58.414062 133.890625 C 58.300781 134.070312 58.265625 134.265625 58.308594 134.472656 L 60.933594 146.527344 C 61.945312 146.316406 62.929688 146.03125 63.894531 145.664062 C 64.859375 145.300781 65.789062 144.863281 66.6875 144.347656 C 67.582031 143.835938 68.429688 143.257812 69.234375 142.609375 C 70.035156 141.964844 70.78125 141.257812 71.472656 140.492188 C 72.164062 139.726562 72.789062 138.910156 73.351562 138.046875 C 73.914062 137.183594 74.402344 136.28125 74.820312 135.335938 C 75.238281 134.394531 75.578125 133.425781 75.84375 132.429688 C 76.105469 131.433594 76.289062 130.421875 76.394531 129.398438 Z M 76.394531 129.398438 " fill-opacity="1" fill-rule="nonzero"/></g></svg>